<svg width="253" height="123" viewBox="0 0 253 123" fill="none" xmlns="http://www.w3.org/2000/svg">
<path d="M108.518 114.747H102.75V114.32C102.979 114.32 103.16 114.303 103.294 114.27C103.432 114.232 103.537 114.17 103.609 114.085C103.68 113.994 103.728 113.876 103.752 113.728C103.776 113.581 103.788 113.396 103.788 113.173V109.02C103.788 108.792 103.778 108.607 103.759 108.464C103.74 108.317 103.695 108.201 103.623 108.115C103.552 108.03 103.447 107.97 103.308 107.937C103.17 107.904 102.984 107.887 102.75 107.887V107.467H108.59L108.676 109.426H108.261C108.199 109.193 108.139 108.994 108.082 108.828C108.029 108.657 107.955 108.519 107.86 108.415C107.769 108.305 107.643 108.227 107.481 108.179C107.323 108.127 107.108 108.101 106.837 108.101H105.47V110.73H106.128C106.352 110.73 106.531 110.703 106.665 110.651C106.803 110.599 106.913 110.521 106.994 110.416C107.08 110.312 107.142 110.181 107.18 110.024C107.223 109.868 107.259 109.682 107.287 109.469H107.717V112.51H107.287C107.259 112.297 107.223 112.116 107.18 111.969C107.142 111.822 107.082 111.703 107.001 111.613C106.92 111.518 106.81 111.451 106.672 111.413C106.538 111.371 106.357 111.349 106.128 111.349H105.47V113.244C105.47 113.387 105.472 113.512 105.477 113.622C105.486 113.731 105.51 113.823 105.548 113.899C105.591 113.975 105.653 114.035 105.734 114.078C105.815 114.116 105.932 114.135 106.085 114.135H106.665C106.984 114.135 107.249 114.106 107.459 114.049C107.669 113.987 107.85 113.897 108.003 113.778C108.156 113.655 108.294 113.498 108.418 113.308C108.542 113.118 108.678 112.895 108.826 112.639H109.27L108.518 114.747Z" fill="#000B34"/>
<path d="M119.881 111.107C119.881 111.625 119.797 112.107 119.63 112.553C119.468 112.995 119.229 113.379 118.915 113.707C118.604 114.03 118.223 114.284 117.77 114.469C117.316 114.655 116.803 114.747 116.231 114.747H112.574V114.32C112.793 114.32 112.97 114.303 113.103 114.27C113.242 114.232 113.347 114.175 113.418 114.099C113.495 114.018 113.545 113.914 113.568 113.785C113.592 113.653 113.604 113.493 113.604 113.308V108.906C113.604 108.721 113.592 108.564 113.568 108.436C113.545 108.303 113.495 108.198 113.418 108.122C113.347 108.042 113.242 107.985 113.103 107.951C112.97 107.913 112.793 107.895 112.574 107.895V107.467H116.231C116.803 107.467 117.316 107.564 117.77 107.759C118.223 107.949 118.604 108.21 118.915 108.543C119.229 108.87 119.468 109.255 119.63 109.697C119.797 110.138 119.881 110.608 119.881 111.107ZM117.934 111.107C117.934 110.76 117.901 110.409 117.834 110.053C117.767 109.697 117.648 109.374 117.476 109.084C117.309 108.794 117.082 108.559 116.796 108.379C116.515 108.194 116.159 108.101 115.73 108.101C115.663 108.101 115.603 108.103 115.551 108.108C115.503 108.108 115.46 108.111 115.422 108.115C115.379 108.12 115.341 108.125 115.308 108.13V114.021C115.37 114.059 115.46 114.087 115.58 114.106C115.704 114.12 115.842 114.127 115.995 114.127C116.372 114.127 116.684 114.04 116.932 113.864C117.18 113.683 117.378 113.451 117.526 113.166C117.674 112.876 117.779 112.551 117.841 112.19C117.903 111.829 117.934 111.468 117.934 111.107Z" fill="#000B34"/>
<path d="M130.792 107.895C130.592 107.895 130.425 107.911 130.291 107.944C130.158 107.973 130.05 108.023 129.969 108.094C129.893 108.16 129.838 108.251 129.805 108.365C129.776 108.474 129.762 108.607 129.762 108.764V111.848C129.762 112.28 129.712 112.684 129.611 113.059C129.516 113.429 129.356 113.752 129.132 114.028C128.912 114.298 128.621 114.512 128.259 114.669C127.901 114.825 127.46 114.904 126.935 114.904C126.295 114.904 125.78 114.83 125.389 114.683C124.998 114.536 124.695 114.322 124.48 114.042C124.27 113.757 124.129 113.41 124.058 113.002C123.986 112.594 123.95 112.128 123.95 111.606V108.835C123.95 108.65 123.938 108.498 123.915 108.379C123.896 108.255 123.85 108.158 123.779 108.087C123.712 108.016 123.612 107.966 123.478 107.937C123.349 107.909 123.175 107.895 122.956 107.895V107.467H126.706V107.895C126.486 107.895 126.307 107.909 126.169 107.937C126.031 107.966 125.923 108.016 125.847 108.087C125.771 108.158 125.718 108.255 125.689 108.379C125.661 108.498 125.647 108.65 125.647 108.835V112.033C125.647 112.432 125.675 112.772 125.732 113.052C125.794 113.332 125.887 113.56 126.012 113.736C126.136 113.911 126.293 114.04 126.484 114.12C126.675 114.196 126.899 114.234 127.157 114.234C127.443 114.234 127.698 114.196 127.922 114.12C128.151 114.04 128.349 113.909 128.516 113.728C128.717 113.515 128.86 113.242 128.946 112.909C129.036 112.577 129.082 112.154 129.082 111.641V108.764C129.082 108.578 129.067 108.429 129.039 108.315C129.01 108.201 128.955 108.113 128.874 108.051C128.798 107.989 128.691 107.949 128.552 107.93C128.419 107.906 128.242 107.895 128.023 107.895V107.467H130.792V107.895Z" fill="#000B34"/>
<path d="M141.16 112.981C141.045 113.17 140.902 113.379 140.73 113.607C140.559 113.831 140.344 114.04 140.086 114.234C139.833 114.424 139.533 114.583 139.185 114.712C138.836 114.84 138.433 114.904 137.975 114.904C137.321 114.904 136.751 114.804 136.265 114.605C135.783 114.4 135.382 114.13 135.062 113.793C134.743 113.451 134.504 113.061 134.347 112.624C134.189 112.183 134.11 111.724 134.11 111.25C134.11 110.931 134.146 110.613 134.218 110.295C134.289 109.977 134.394 109.673 134.533 109.383C134.671 109.094 134.845 108.823 135.055 108.571C135.27 108.315 135.516 108.094 135.792 107.909C136.069 107.724 136.382 107.579 136.73 107.474C137.078 107.365 137.46 107.31 137.875 107.31C138.152 107.31 138.405 107.339 138.634 107.396C138.863 107.448 139.063 107.507 139.235 107.574C139.411 107.64 139.557 107.702 139.671 107.759C139.791 107.811 139.876 107.838 139.929 107.838C140.005 107.838 140.065 107.823 140.108 107.795C140.151 107.766 140.184 107.728 140.208 107.681C140.237 107.629 140.258 107.569 140.272 107.503C140.292 107.436 140.313 107.367 140.337 107.296H140.752L140.917 110.103H140.487C140.406 109.761 140.284 109.455 140.122 109.184C139.96 108.913 139.771 108.685 139.557 108.5C139.347 108.315 139.118 108.172 138.87 108.073C138.622 107.973 138.376 107.923 138.133 107.923C137.76 107.923 137.438 108.011 137.166 108.187C136.894 108.358 136.67 108.595 136.494 108.899C136.317 109.198 136.186 109.549 136.1 109.953C136.014 110.357 135.971 110.789 135.971 111.25C135.971 111.71 136.028 112.128 136.143 112.503C136.257 112.874 136.417 113.189 136.622 113.451C136.832 113.712 137.08 113.914 137.367 114.056C137.658 114.194 137.98 114.263 138.333 114.263C138.619 114.263 138.884 114.215 139.127 114.12C139.371 114.025 139.593 113.904 139.793 113.757C139.998 113.605 140.179 113.434 140.337 113.244C140.499 113.054 140.642 112.864 140.766 112.674L141.16 112.981Z" fill="#000B34"/>
<path d="M148.486 114.747V114.32C148.805 114.32 149.027 114.294 149.151 114.241C149.28 114.189 149.345 114.101 149.345 113.978C149.345 113.949 149.34 113.909 149.33 113.857C149.321 113.8 149.297 113.719 149.259 113.615C149.225 113.505 149.175 113.365 149.108 113.194C149.042 113.019 148.949 112.798 148.829 112.532H146.489C146.408 112.731 146.336 112.914 146.274 113.08C146.222 113.223 146.172 113.36 146.124 113.493C146.081 113.622 146.06 113.705 146.06 113.743C146.06 113.923 146.136 114.059 146.289 114.149C146.446 114.239 146.694 114.296 147.033 114.32V114.747H144.313V114.32C144.437 114.296 144.547 114.267 144.643 114.234C144.743 114.196 144.836 114.139 144.922 114.063C145.012 113.983 145.098 113.876 145.179 113.743C145.261 113.605 145.346 113.429 145.437 113.216L147.878 107.31H148.307L151.019 113.458C151.091 113.619 151.172 113.755 151.263 113.864C151.353 113.968 151.449 114.056 151.549 114.127C151.649 114.194 151.749 114.241 151.85 114.27C151.954 114.298 152.055 114.315 152.15 114.32V114.747H148.486ZM147.584 109.761L146.718 111.905H148.55L147.584 109.761Z" fill="#000B34"/>
<path d="M161.466 109.647C161.413 109.115 161.258 108.726 161 108.479C160.743 108.227 160.356 108.101 159.841 108.101H159.376V113.379C159.376 113.565 159.388 113.719 159.412 113.842C159.44 113.961 159.493 114.056 159.569 114.127C159.65 114.199 159.758 114.248 159.891 114.277C160.03 114.305 160.211 114.32 160.435 114.32V114.747H156.628V114.32C156.847 114.32 157.026 114.305 157.164 114.277C157.303 114.248 157.41 114.199 157.486 114.127C157.563 114.056 157.613 113.961 157.637 113.842C157.665 113.719 157.68 113.565 157.68 113.379V108.101H157.143C156.89 108.101 156.668 108.13 156.477 108.187C156.291 108.239 156.131 108.327 155.998 108.45C155.864 108.569 155.759 108.728 155.683 108.927C155.611 109.122 155.564 109.362 155.54 109.647H155.103L155.175 107.467H161.823L161.895 109.647H161.466Z" fill="#000B34"/>
<path d="M165.084 114.747V114.32C165.304 114.32 165.48 114.305 165.614 114.277C165.752 114.248 165.857 114.199 165.929 114.127C166.005 114.056 166.055 113.961 166.079 113.842C166.108 113.719 166.122 113.565 166.122 113.379V108.906C166.122 108.721 166.108 108.564 166.079 108.436C166.055 108.303 166.005 108.198 165.929 108.122C165.857 108.042 165.752 107.985 165.614 107.951C165.48 107.913 165.304 107.895 165.084 107.895V107.467H168.849V107.895C168.629 107.895 168.45 107.913 168.312 107.951C168.179 107.985 168.074 108.042 167.997 108.122C167.926 108.198 167.878 108.303 167.854 108.436C167.83 108.564 167.818 108.721 167.818 108.906V113.379C167.818 113.565 167.83 113.719 167.854 113.842C167.878 113.961 167.926 114.056 167.997 114.127C168.074 114.199 168.179 114.248 168.312 114.277C168.45 114.305 168.629 114.32 168.849 114.32V114.747H165.084Z" fill="#000B34"/>
<path d="M179.875 111.107C179.875 111.615 179.784 112.1 179.603 112.56C179.426 113.021 179.171 113.427 178.837 113.778C178.503 114.125 178.095 114.403 177.613 114.612C177.136 114.816 176.597 114.918 175.996 114.918C175.395 114.918 174.853 114.816 174.371 114.612C173.889 114.408 173.479 114.132 173.14 113.785C172.806 113.439 172.549 113.035 172.367 112.575C172.191 112.109 172.103 111.62 172.103 111.107C172.103 110.58 172.198 110.086 172.389 109.625C172.585 109.16 172.854 108.756 173.198 108.415C173.546 108.073 173.956 107.804 174.429 107.61C174.906 107.41 175.423 107.31 175.982 107.31C176.583 107.31 177.124 107.412 177.606 107.617C178.088 107.816 178.496 108.089 178.83 108.436C179.169 108.783 179.426 109.186 179.603 109.647C179.784 110.103 179.875 110.589 179.875 111.107ZM177.928 111.143C177.928 110.901 177.914 110.651 177.885 110.395C177.861 110.138 177.821 109.889 177.764 109.647C177.706 109.4 177.628 109.17 177.527 108.956C177.432 108.737 177.31 108.547 177.162 108.386C177.019 108.22 176.85 108.089 176.654 107.994C176.459 107.899 176.234 107.852 175.982 107.852C175.729 107.852 175.504 107.899 175.309 107.994C175.113 108.089 174.944 108.217 174.801 108.379C174.658 108.54 174.538 108.728 174.443 108.942C174.347 109.155 174.269 109.381 174.207 109.618C174.149 109.856 174.109 110.1 174.085 110.352C174.061 110.599 174.049 110.836 174.049 111.064C174.049 111.273 174.061 111.501 174.085 111.748C174.109 111.995 174.149 112.242 174.207 112.489C174.269 112.731 174.347 112.966 174.443 113.194C174.538 113.417 174.658 113.617 174.801 113.793C174.944 113.964 175.111 114.101 175.302 114.206C175.497 114.31 175.724 114.362 175.982 114.362C176.363 114.362 176.678 114.26 176.926 114.056C177.179 113.847 177.38 113.584 177.527 113.265C177.675 112.947 177.778 112.601 177.835 112.225C177.897 111.846 177.928 111.485 177.928 111.143Z" fill="#000B34"/>
<path d="M190.436 107.895C190.264 107.895 190.123 107.906 190.013 107.93C189.909 107.949 189.825 107.987 189.763 108.044C189.706 108.101 189.665 108.182 189.641 108.286C189.617 108.386 189.606 108.517 189.606 108.678V114.861H188.976L184.703 109.362V113.536C184.703 113.702 184.72 113.838 184.753 113.942C184.791 114.042 184.849 114.12 184.925 114.177C185.001 114.234 185.102 114.272 185.226 114.291C185.35 114.31 185.502 114.32 185.684 114.32V114.747H183.086V114.32C183.257 114.32 183.401 114.31 183.515 114.291C183.634 114.272 183.732 114.234 183.809 114.177C183.885 114.12 183.94 114.042 183.973 113.942C184.007 113.838 184.023 113.702 184.023 113.536V108.5C183.914 108.358 183.825 108.246 183.758 108.165C183.692 108.084 183.627 108.025 183.565 107.987C183.508 107.944 183.444 107.918 183.372 107.909C183.3 107.895 183.205 107.887 183.086 107.887V107.467H185.49L188.926 111.898V108.678C188.926 108.517 188.911 108.386 188.883 108.286C188.854 108.182 188.806 108.101 188.74 108.044C188.673 107.987 188.58 107.949 188.46 107.93C188.341 107.906 188.193 107.895 188.017 107.895V107.467H190.436V107.895Z" fill="#000B34"/>
<path d="M208.029 111.193C207.843 111.193 207.693 111.212 207.578 111.25C207.464 111.283 207.375 111.34 207.313 111.421C207.251 111.497 207.211 111.601 207.192 111.734C207.173 111.862 207.163 112.019 207.163 112.204V114.142C206.71 114.412 206.223 114.607 205.703 114.726C205.188 114.844 204.613 114.904 203.978 114.904C203.301 114.904 202.712 114.797 202.211 114.583C201.71 114.365 201.295 114.078 200.965 113.721C200.636 113.365 200.39 112.959 200.228 112.503C200.071 112.047 199.992 111.582 199.992 111.107C199.992 110.632 200.083 110.167 200.264 109.711C200.45 109.255 200.715 108.849 201.058 108.493C201.407 108.137 201.829 107.852 202.325 107.638C202.826 107.42 203.391 107.31 204.021 107.31C204.312 107.31 204.577 107.339 204.816 107.396C205.059 107.448 205.274 107.507 205.46 107.574C205.651 107.64 205.813 107.702 205.946 107.759C206.085 107.811 206.197 107.838 206.283 107.838C206.335 107.838 206.376 107.816 206.405 107.773C206.438 107.726 206.462 107.674 206.476 107.617C206.49 107.555 206.5 107.496 206.505 107.439C206.514 107.377 206.524 107.329 206.533 107.296H206.948L207.163 109.918H206.741C206.655 109.595 206.531 109.307 206.369 109.056C206.206 108.799 206.018 108.585 205.803 108.415C205.593 108.239 205.364 108.106 205.116 108.016C204.868 107.921 204.613 107.873 204.351 107.873C203.926 107.873 203.561 107.956 203.256 108.122C202.955 108.284 202.704 108.509 202.504 108.799C202.308 109.089 202.163 109.431 202.067 109.825C201.977 110.219 201.932 110.646 201.932 111.107C201.932 111.516 201.965 111.914 202.032 112.304C202.099 112.688 202.218 113.033 202.39 113.337C202.561 113.641 202.797 113.885 203.098 114.07C203.403 114.251 203.792 114.341 204.265 114.341C204.517 114.341 204.737 114.32 204.923 114.277C205.109 114.234 205.29 114.151 205.467 114.028V112.204C205.467 112.019 205.453 111.862 205.424 111.734C205.4 111.601 205.352 111.497 205.281 111.421C205.214 111.34 205.119 111.283 204.995 111.25C204.875 111.212 204.72 111.193 204.529 111.193V110.765H208.029V111.193Z" fill="#000B34"/>
<path d="M216.414 114.747L214.038 111.456C214.01 111.466 213.959 111.47 213.888 111.47C213.859 111.47 213.828 111.47 213.795 111.47C213.766 111.466 213.74 111.463 213.716 111.463V113.372C213.716 113.548 213.728 113.698 213.752 113.821C213.781 113.94 213.831 114.037 213.902 114.113C213.979 114.184 214.081 114.237 214.21 114.27C214.344 114.303 214.518 114.32 214.732 114.32V114.747H211.018V114.32C211.238 114.32 211.414 114.303 211.548 114.27C211.681 114.237 211.781 114.182 211.848 114.106C211.92 114.025 211.965 113.921 211.984 113.793C212.008 113.664 212.02 113.508 212.02 113.322V108.749C212.02 108.578 212.008 108.438 211.984 108.329C211.965 108.22 211.92 108.134 211.848 108.073C211.781 108.006 211.681 107.961 211.548 107.937C211.414 107.909 211.238 107.895 211.018 107.895V107.467H214.053C214.468 107.467 214.873 107.486 215.269 107.524C215.67 107.557 216.025 107.638 216.336 107.766C216.646 107.895 216.894 108.084 217.08 108.336C217.271 108.583 217.366 108.918 217.366 109.341C217.366 109.63 217.328 109.887 217.252 110.11C217.18 110.333 217.08 110.525 216.951 110.687C216.822 110.848 216.67 110.979 216.493 111.079C216.316 111.178 216.126 111.25 215.92 111.292L217.502 113.159C217.674 113.363 217.834 113.539 217.982 113.686C218.13 113.828 218.273 113.947 218.411 114.042C218.549 114.132 218.688 114.201 218.826 114.248C218.969 114.291 219.124 114.315 219.291 114.32V114.747H216.414ZM215.591 109.447C215.591 109.281 215.577 109.117 215.548 108.956C215.52 108.794 215.458 108.652 215.362 108.528C215.272 108.4 215.136 108.298 214.954 108.222C214.773 108.141 214.53 108.101 214.224 108.101C214.134 108.101 214.057 108.103 213.995 108.108C213.933 108.108 213.881 108.111 213.838 108.115C213.785 108.12 213.745 108.125 213.716 108.13V110.829C213.769 110.839 213.852 110.848 213.967 110.858C214.086 110.863 214.2 110.865 214.31 110.865C214.472 110.865 214.63 110.832 214.783 110.765C214.94 110.699 215.078 110.604 215.198 110.48C215.317 110.357 215.412 110.207 215.484 110.031C215.555 109.856 215.591 109.661 215.591 109.447Z" fill="#000B34"/>
<path d="M229.58 111.107C229.58 111.615 229.49 112.1 229.308 112.56C229.132 113.021 228.876 113.427 228.542 113.778C228.208 114.125 227.801 114.403 227.319 114.612C226.841 114.816 226.302 114.918 225.701 114.918C225.1 114.918 224.558 114.816 224.077 114.612C223.595 114.408 223.184 114.132 222.846 113.785C222.512 113.439 222.254 113.035 222.073 112.575C221.896 112.109 221.808 111.62 221.808 111.107C221.808 110.58 221.903 110.086 222.094 109.625C222.29 109.16 222.559 108.756 222.903 108.415C223.251 108.073 223.661 107.804 224.134 107.61C224.611 107.41 225.129 107.31 225.687 107.31C226.288 107.31 226.83 107.412 227.311 107.617C227.793 107.816 228.201 108.089 228.535 108.436C228.874 108.783 229.132 109.186 229.308 109.647C229.49 110.103 229.58 110.589 229.58 111.107ZM227.634 111.143C227.634 110.901 227.619 110.651 227.591 110.395C227.567 110.138 227.526 109.889 227.469 109.647C227.412 109.4 227.333 109.17 227.233 108.956C227.137 108.737 227.016 108.547 226.868 108.386C226.725 108.22 226.555 108.089 226.36 107.994C226.164 107.899 225.94 107.852 225.687 107.852C225.434 107.852 225.21 107.899 225.014 107.994C224.819 108.089 224.649 108.217 224.506 108.379C224.363 108.54 224.244 108.728 224.148 108.942C224.053 109.155 223.974 109.381 223.912 109.618C223.855 109.856 223.814 110.1 223.79 110.352C223.766 110.599 223.755 110.836 223.755 111.064C223.755 111.273 223.766 111.501 223.79 111.748C223.814 111.995 223.855 112.242 223.912 112.489C223.974 112.731 224.053 112.966 224.148 113.194C224.244 113.417 224.363 113.617 224.506 113.793C224.649 113.964 224.816 114.101 225.007 114.206C225.203 114.31 225.429 114.362 225.687 114.362C226.069 114.362 226.383 114.26 226.632 114.056C226.884 113.847 227.085 113.584 227.233 113.265C227.381 112.947 227.483 112.601 227.54 112.225C227.602 111.846 227.634 111.485 227.634 111.143Z" fill="#000B34"/>
<path d="M240.427 107.895C240.227 107.895 240.06 107.911 239.926 107.944C239.793 107.973 239.685 108.023 239.604 108.094C239.528 108.16 239.473 108.251 239.44 108.365C239.411 108.474 239.397 108.607 239.397 108.764V111.848C239.397 112.28 239.347 112.684 239.246 113.059C239.151 113.429 238.991 113.752 238.767 114.028C238.547 114.298 238.256 114.512 237.894 114.669C237.536 114.825 237.095 114.904 236.57 114.904C235.93 114.904 235.415 114.83 235.024 114.683C234.633 114.536 234.33 114.322 234.115 114.042C233.905 113.757 233.764 113.41 233.693 113.002C233.621 112.594 233.585 112.128 233.585 111.606V108.835C233.585 108.65 233.573 108.498 233.55 108.379C233.531 108.255 233.485 108.158 233.414 108.087C233.347 108.016 233.247 107.966 233.113 107.937C232.984 107.909 232.81 107.895 232.591 107.895V107.467H236.341V107.895C236.121 107.895 235.942 107.909 235.804 107.937C235.666 107.966 235.558 108.016 235.482 108.087C235.406 108.158 235.353 108.255 235.324 108.379C235.296 108.498 235.282 108.65 235.282 108.835V112.033C235.282 112.432 235.31 112.772 235.367 113.052C235.429 113.332 235.522 113.56 235.647 113.736C235.771 113.911 235.928 114.04 236.119 114.12C236.31 114.196 236.534 114.234 236.792 114.234C237.078 114.234 237.333 114.196 237.557 114.12C237.786 114.04 237.984 113.909 238.151 113.728C238.352 113.515 238.495 113.242 238.581 112.909C238.671 112.577 238.717 112.154 238.717 111.641V108.764C238.717 108.578 238.702 108.429 238.674 108.315C238.645 108.201 238.59 108.113 238.509 108.051C238.433 107.989 238.326 107.949 238.187 107.93C238.054 107.906 237.877 107.895 237.658 107.895V107.467H240.427V107.895Z" fill="#000B34"/>
<path d="M249.628 109.447C249.628 109.728 249.573 109.996 249.464 110.252C249.359 110.504 249.187 110.727 248.948 110.922C248.715 111.117 248.412 111.271 248.04 111.385C247.667 111.499 247.216 111.556 246.687 111.556C246.62 111.556 246.558 111.556 246.501 111.556C246.444 111.551 246.391 111.546 246.343 111.542C246.291 111.537 246.241 111.532 246.193 111.527V113.444C246.193 113.619 246.205 113.764 246.229 113.878C246.257 113.987 246.308 114.075 246.379 114.142C246.451 114.208 246.551 114.256 246.68 114.284C246.813 114.308 246.987 114.32 247.202 114.32V114.747H243.495V114.32C243.714 114.32 243.889 114.308 244.017 114.284C244.151 114.256 244.254 114.208 244.325 114.142C244.397 114.07 244.442 113.975 244.461 113.857C244.485 113.733 244.497 113.579 244.497 113.394V108.678C244.497 108.507 244.485 108.372 244.461 108.272C244.442 108.168 244.397 108.089 244.325 108.037C244.254 107.98 244.151 107.942 244.017 107.923C243.889 107.904 243.714 107.895 243.495 107.895V107.467H246.987C247.403 107.467 247.772 107.515 248.097 107.61C248.426 107.705 248.703 107.838 248.927 108.008C249.156 108.179 249.33 108.388 249.449 108.635C249.569 108.878 249.628 109.148 249.628 109.447ZM247.832 109.447C247.832 109.248 247.81 109.065 247.768 108.899C247.725 108.733 247.651 108.59 247.546 108.471C247.441 108.353 247.298 108.263 247.116 108.201C246.94 108.134 246.713 108.101 246.436 108.101C246.408 108.101 246.379 108.103 246.351 108.108C246.322 108.108 246.296 108.111 246.272 108.115C246.243 108.12 246.217 108.125 246.193 108.13V110.908C246.222 110.912 246.248 110.917 246.272 110.922C246.296 110.927 246.319 110.931 246.343 110.936C246.372 110.936 246.403 110.936 246.436 110.936C246.708 110.936 246.935 110.898 247.116 110.822C247.298 110.741 247.441 110.635 247.546 110.502C247.651 110.369 247.725 110.212 247.768 110.031C247.81 109.851 247.832 109.656 247.832 109.447Z" fill="#000B34"/>
<path d="M128.56 78.9538V75.8291C130.556 75.8291 131.941 75.6382 132.715 75.2563C133.519 74.8744 133.921 74.2321 133.921 73.3294C133.921 73.1211 133.892 72.826 133.832 72.4441C133.772 72.0275 133.624 71.4372 133.385 70.6734C133.177 69.8749 132.864 68.8507 132.447 67.6009C132.03 66.3163 131.449 64.7019 130.704 62.7577H116.094C115.588 64.2158 115.141 65.5525 114.754 66.7676C114.426 67.8092 114.113 68.816 113.816 69.7881C113.548 70.7255 113.414 71.3331 113.414 71.6108C113.414 72.9301 113.89 73.9196 114.843 74.5792C115.826 75.2389 117.375 75.6555 119.49 75.8291V78.9538H102.512V75.8291C103.286 75.6555 103.971 75.4472 104.567 75.2042C105.192 74.9264 105.773 74.5098 106.309 73.9543C106.875 73.3641 107.412 72.5829 107.918 71.6108C108.424 70.604 108.96 69.3194 109.526 67.7571L124.762 24.5849H127.443L144.376 69.5277C144.823 70.7082 145.33 71.6976 145.895 72.4961C146.461 73.26 147.057 73.9022 147.683 74.423C148.308 74.9091 148.934 75.2563 149.559 75.4646C150.214 75.6729 150.84 75.7944 151.436 75.8291V78.9538H128.56ZM122.93 42.4995L117.524 58.1748H128.962L122.93 42.4995Z" fill="#000B34"/>
<path d="M189.324 78.9538H153.312V75.8291C154.742 75.8291 155.874 75.7076 156.708 75.4646C157.572 75.1868 158.227 74.7355 158.674 74.1106C159.121 73.4509 159.418 72.5829 159.567 71.5067C159.716 70.4304 159.791 69.0764 159.791 67.4446V37.0835C159.791 35.417 159.731 34.063 159.612 33.0214C159.493 31.9452 159.21 31.0946 158.763 30.4696C158.316 29.8447 157.661 29.4107 156.797 29.1677C155.933 28.9247 154.772 28.8031 153.312 28.8031V25.7306H189.771L190.307 40.0519H187.715C187.328 38.3507 186.956 36.8925 186.598 35.6774C186.271 34.4275 185.809 33.4207 185.213 32.6569C184.647 31.8584 183.858 31.2855 182.845 30.9383C181.862 30.5564 180.522 30.3655 178.824 30.3655H170.29V49.5821H174.401C175.801 49.5821 176.918 49.3911 177.752 49.0092C178.616 48.6273 179.301 48.0545 179.807 47.2906C180.343 46.5268 180.731 45.5721 180.969 44.4264C181.237 43.2807 181.46 41.9267 181.639 40.3643H184.32V62.6014H181.639C181.46 61.0391 181.237 59.7198 180.969 58.6435C180.731 57.5673 180.358 56.6993 179.852 56.0397C179.346 55.3453 178.66 54.8592 177.797 54.5815C176.963 54.269 175.831 54.1128 174.401 54.1128H170.29V67.9654C170.29 69.007 170.305 69.927 170.335 70.7255C170.395 71.524 170.544 72.201 170.782 72.7565C171.05 73.312 171.437 73.746 171.944 74.0585C172.45 74.3362 173.18 74.4751 174.133 74.4751H177.752C179.748 74.4751 181.401 74.2668 182.711 73.8502C184.022 73.3988 185.154 72.7392 186.107 71.8712C187.06 70.9685 187.924 69.8228 188.698 68.4341C189.473 67.0454 190.322 65.4136 191.245 63.5388H194.015L189.324 78.9538Z" fill="#000B34"/>
<path d="M249.999 52.9671C248.837 52.9671 247.899 53.106 247.184 53.3837C246.469 53.6267 245.918 54.0434 245.531 54.6336C245.143 55.1891 244.89 55.9529 244.771 56.925C244.652 57.8624 244.592 59.0081 244.592 60.3621V74.5272C241.763 76.5061 238.725 77.9296 235.478 78.7975C232.261 79.6655 228.672 80.0995 224.71 80.0995C220.48 80.0995 216.802 79.3183 213.674 77.756C210.547 76.1589 207.955 74.0585 205.9 71.4546C203.845 68.8507 202.311 65.8823 201.298 62.5494C200.315 59.2164 199.824 55.814 199.824 52.3422C199.824 48.8703 200.39 45.4679 201.521 42.135C202.683 38.802 204.336 35.8336 206.481 33.2297C208.655 30.6259 211.291 28.5428 214.389 26.9804C217.517 25.3834 221.046 24.5849 224.978 24.5849C226.795 24.5849 228.448 24.7932 229.938 25.2098C231.457 25.5917 232.797 26.0257 233.959 26.5117C235.15 26.9978 236.163 27.4491 236.997 27.8657C237.861 28.2477 238.561 28.4386 239.097 28.4386C239.424 28.4386 239.678 28.2824 239.856 27.9699C240.065 27.6227 240.214 27.2408 240.303 26.8242C240.393 26.3729 240.452 25.9389 240.482 25.5223C240.541 25.0709 240.601 24.7237 240.661 24.4807H243.252L244.592 43.6452H241.956C241.42 41.2844 240.646 39.1839 239.633 37.3439C238.62 35.4691 237.444 33.9067 236.103 32.6569C234.793 31.3723 233.363 30.4002 231.814 29.7405C230.265 29.0462 228.672 28.699 227.033 28.699C224.382 28.699 222.104 29.3066 220.197 30.5217C218.321 31.7021 216.757 33.3512 215.506 35.4691C214.285 37.5869 213.376 40.0866 212.781 42.9682C212.215 45.8498 211.932 48.9745 211.932 52.3422C211.932 55.3279 212.14 58.2443 212.557 61.0912C212.974 63.9034 213.719 66.4204 214.791 68.6424C215.864 70.8644 217.338 72.6524 219.214 74.0064C221.121 75.3257 223.548 75.9853 226.497 75.9853C228.076 75.9853 229.446 75.8291 230.608 75.5166C231.769 75.2042 232.901 74.5966 234.003 73.6939V60.3621C234.003 59.0081 233.914 57.8624 233.735 56.925C233.586 55.9529 233.289 55.1891 232.842 54.6336C232.425 54.0434 231.829 53.6267 231.055 53.3837C230.31 53.106 229.342 52.9671 228.15 52.9671V49.8424H249.999V52.9671Z" fill="#000B34"/>
<path d="M147.106 100.158V99.3199C147.61 99.3199 147.96 99.2687 148.155 99.1662C148.358 99.0637 148.46 98.8914 148.46 98.6492C148.46 98.5933 148.452 98.5141 148.437 98.4116C148.422 98.2998 148.385 98.1415 148.324 97.9365C148.272 97.7223 148.193 97.4475 148.087 97.1121C147.982 96.7674 147.835 96.3342 147.647 95.8125H143.958C143.83 96.2038 143.717 96.5625 143.619 96.8885C143.536 97.168 143.457 97.4381 143.382 97.699C143.314 97.9505 143.281 98.1135 143.281 98.1881C143.281 98.5421 143.401 98.8076 143.642 98.9846C143.89 99.1616 144.281 99.2733 144.815 99.3199V100.158H140.527V99.3199C140.723 99.2733 140.896 99.2175 141.046 99.1522C141.204 99.0777 141.351 98.9659 141.486 98.8169C141.629 98.6585 141.765 98.4489 141.893 98.1881C142.021 97.9179 142.156 97.5732 142.299 97.154L146.147 85.5698H146.824L151.1 97.6291C151.213 97.9458 151.341 98.2113 151.484 98.4256C151.627 98.6306 151.777 98.8029 151.935 98.9426C152.093 99.0731 152.251 99.1662 152.409 99.2221C152.575 99.278 152.733 99.3106 152.883 99.3199V100.158H147.106ZM145.684 90.3768L144.319 94.5828H147.207L145.684 90.3768Z" fill="#E00000"/>
<path d="M163.191 100.158H153.554V99.3199C153.9 99.3199 154.179 99.2873 154.389 99.2221C154.607 99.1476 154.773 99.0358 154.886 98.8867C155.006 98.7284 155.085 98.5234 155.123 98.2719C155.16 98.0111 155.179 97.699 155.179 97.3357V88.6999C155.179 88.3366 155.16 88.0292 155.123 87.7777C155.085 87.5168 155.006 87.3119 154.886 87.1628C154.773 87.0045 154.607 86.8927 154.389 86.8275C154.179 86.7529 153.9 86.7157 153.554 86.7157V85.8772H159.614V86.7157C159.268 86.7157 158.982 86.7529 158.756 86.8275C158.53 86.8927 158.35 87.0045 158.214 87.1628C158.079 87.3119 157.985 87.5168 157.932 87.7777C157.88 88.0292 157.853 88.3366 157.853 88.6999V97.3357C157.853 97.6524 157.868 97.9132 157.898 98.1182C157.936 98.3231 158.019 98.4862 158.147 98.6073C158.275 98.7191 158.463 98.7982 158.711 98.8448C158.967 98.8914 159.309 98.9147 159.738 98.9147H160.629C160.93 98.9147 161.216 98.8588 161.487 98.747C161.765 98.6352 162.032 98.4396 162.288 98.1601C162.544 97.8713 162.792 97.4847 163.033 97.0003C163.273 96.5159 163.51 95.901 163.743 95.1558H164.42L163.191 100.158Z" fill="#E00000"/>
<path d="M173.961 89.72C173.863 89.2635 173.773 88.8723 173.69 88.5462C173.607 88.2109 173.491 87.9407 173.34 87.7357C173.19 87.5215 172.987 87.3678 172.731 87.2746C172.482 87.1721 172.144 87.1209 171.715 87.1209H169.571V92.2772H170.632C170.978 92.2772 171.256 92.226 171.467 92.1235C171.685 92.021 171.858 91.8673 171.986 91.6623C172.114 91.4574 172.208 91.2012 172.268 90.8938C172.336 90.5864 172.392 90.2231 172.437 89.8038H173.114V95.7706H172.426C172.381 95.3514 172.328 94.9974 172.268 94.7086C172.208 94.4198 172.114 94.1869 171.986 94.0099C171.866 93.8236 171.696 93.6932 171.478 93.6187C171.268 93.5348 170.986 93.4929 170.632 93.4929H169.571V97.3357C169.571 97.6803 169.586 97.9785 169.616 98.23C169.654 98.4815 169.729 98.6865 169.842 98.8448C169.955 99.0032 170.12 99.1243 170.339 99.2081C170.557 99.2827 170.85 99.3199 171.219 99.3199V100.158H165.261V99.3199C165.607 99.3199 165.885 99.2873 166.096 99.2221C166.314 99.1476 166.48 99.0358 166.592 98.8867C166.713 98.7284 166.792 98.5234 166.829 98.2719C166.874 98.0111 166.897 97.699 166.897 97.3357V88.6999C166.897 88.3366 166.874 88.0292 166.829 87.7777C166.792 87.5168 166.713 87.3119 166.592 87.1628C166.48 87.0045 166.314 86.8927 166.096 86.8275C165.885 86.7529 165.607 86.7157 165.261 86.7157V85.8772H174.502L174.626 89.72H173.961Z" fill="#E00000"/>
<path d="M184.573 100.158L180.827 93.7025C180.781 93.7211 180.702 93.7305 180.59 93.7305C180.545 93.7305 180.496 93.7305 180.443 93.7305C180.398 93.7211 180.356 93.7165 180.319 93.7165V97.4614C180.319 97.8061 180.338 98.0996 180.375 98.3418C180.42 98.5747 180.499 98.7656 180.612 98.9147C180.733 99.0544 180.894 99.1569 181.097 99.2221C181.308 99.2873 181.583 99.3199 181.921 99.3199V100.158H176.065V99.3199C176.411 99.3199 176.689 99.2873 176.9 99.2221C177.11 99.1569 177.268 99.0498 177.374 98.9007C177.487 98.7423 177.558 98.5374 177.588 98.2859C177.626 98.0343 177.645 97.7269 177.645 97.3636V88.3925C177.645 88.0571 177.626 87.7823 177.588 87.5681C177.558 87.3538 177.487 87.1861 177.374 87.065C177.268 86.9346 177.11 86.8461 176.9 86.7995C176.689 86.7436 176.411 86.7157 176.065 86.7157V85.8772H180.849C181.504 85.8772 182.143 85.9145 182.767 85.989C183.399 86.0542 183.96 86.2126 184.449 86.4641C184.938 86.7157 185.329 87.0883 185.622 87.582C185.923 88.0665 186.074 88.7232 186.074 89.5523C186.074 90.1206 186.013 90.6236 185.893 91.0615C185.78 91.4993 185.622 91.8766 185.419 92.1933C185.216 92.5101 184.975 92.7663 184.697 92.9619C184.419 93.1575 184.118 93.2973 183.794 93.3811L186.288 97.0422C186.559 97.4428 186.811 97.7875 187.044 98.0763C187.277 98.3557 187.503 98.5886 187.721 98.775C187.939 98.952 188.157 99.087 188.375 99.1802C188.601 99.264 188.846 99.3106 189.109 99.3199V100.158H184.573ZM183.275 89.7619C183.275 89.4359 183.253 89.1145 183.207 88.7977C183.162 88.481 183.065 88.2015 182.914 87.9593C182.771 87.7078 182.557 87.5075 182.271 87.3585C181.985 87.2001 181.601 87.1209 181.12 87.1209C180.977 87.1209 180.857 87.1256 180.759 87.1349C180.661 87.1349 180.578 87.1395 180.511 87.1489C180.428 87.1582 180.364 87.1675 180.319 87.1768V92.4728C180.402 92.4915 180.533 92.5101 180.714 92.5287C180.902 92.538 181.082 92.5427 181.255 92.5427C181.511 92.5427 181.759 92.4775 182 92.3471C182.248 92.2166 182.467 92.0303 182.655 91.7881C182.843 91.5459 182.993 91.2525 183.106 90.9078C183.219 90.5631 183.275 90.1811 183.275 89.7619Z" fill="#E00000"/>
<path d="M197.995 100.158H188.9V99.3199C189.261 99.3199 189.547 99.2873 189.757 99.2221C189.976 99.1476 190.141 99.0265 190.254 98.8588C190.367 98.6818 190.442 98.4489 190.48 98.1601C190.517 97.8713 190.536 97.508 190.536 97.0702V88.9235C190.536 88.4764 190.521 88.113 190.491 87.8336C190.461 87.5448 190.389 87.3165 190.277 87.1489C190.164 86.9812 189.998 86.8647 189.78 86.7995C189.562 86.7343 189.269 86.7017 188.9 86.7017V85.8772H198.107L198.243 89.72H197.588C197.491 89.2635 197.397 88.8723 197.306 88.5462C197.224 88.2109 197.107 87.9407 196.957 87.7357C196.814 87.5215 196.614 87.3678 196.358 87.2746C196.11 87.1721 195.772 87.1209 195.343 87.1209H193.188V92.2772H194.226C194.579 92.2772 194.862 92.226 195.072 92.1235C195.29 92.021 195.463 91.8673 195.591 91.6623C195.727 91.4574 195.824 91.2012 195.885 90.8938C195.952 90.5864 196.009 90.2231 196.054 89.8038H196.731V95.7706H196.054C196.009 95.3514 195.952 94.9974 195.885 94.7086C195.824 94.4198 195.73 94.1869 195.602 94.0099C195.475 93.8236 195.302 93.6932 195.083 93.6187C194.873 93.5348 194.587 93.4929 194.226 93.4929H193.188V97.2099C193.188 97.4894 193.192 97.7362 193.199 97.9505C193.214 98.1648 193.252 98.3464 193.312 98.4955C193.38 98.6445 193.477 98.761 193.605 98.8448C193.733 98.9193 193.917 98.9566 194.158 98.9566H195.072C195.576 98.9566 195.994 98.9007 196.325 98.7889C196.656 98.6678 196.941 98.4908 197.182 98.2579C197.423 98.0157 197.641 97.7083 197.837 97.3357C198.032 96.963 198.247 96.5252 198.48 96.0221H199.179L197.995 100.158Z" fill="#E00000"/>
<path d="M211.981 93.0178C211.981 94.0332 211.849 94.9788 211.586 95.8545C211.33 96.7208 210.954 97.4754 210.457 98.1182C209.968 98.7517 209.367 99.2501 208.652 99.6134C207.937 99.9767 207.129 100.158 206.226 100.158H200.46V99.3199C200.806 99.3199 201.084 99.2873 201.295 99.2221C201.513 99.1476 201.679 99.0358 201.791 98.8867C201.912 98.7284 201.991 98.5234 202.028 98.2719C202.066 98.0111 202.085 97.699 202.085 97.3357V88.6999C202.085 88.3366 202.066 88.0292 202.028 87.7777C201.991 87.5168 201.912 87.3119 201.791 87.1628C201.679 87.0045 201.513 86.8927 201.295 86.8275C201.084 86.7529 200.806 86.7157 200.46 86.7157V85.8772H206.226C207.129 85.8772 207.937 86.0682 208.652 86.4502C209.367 86.8228 209.968 87.3352 210.457 87.9873C210.954 88.6301 211.33 89.3846 211.586 90.251C211.849 91.1174 211.981 92.0396 211.981 93.0178ZM208.911 93.0178C208.911 92.3377 208.859 91.6484 208.753 90.9497C208.648 90.251 208.46 89.6175 208.189 89.0493C207.926 88.481 207.569 88.0199 207.117 87.6659C206.673 87.3026 206.113 87.1209 205.436 87.1209C205.331 87.1209 205.237 87.1256 205.154 87.1349C205.079 87.1349 205.011 87.1395 204.951 87.1489C204.883 87.1582 204.823 87.1675 204.77 87.1768V98.733C204.868 98.8076 205.011 98.8635 205.199 98.9007C205.395 98.9287 205.613 98.9426 205.854 98.9426C206.448 98.9426 206.941 98.7703 207.332 98.4256C207.723 98.0716 208.035 97.6151 208.268 97.0562C208.501 96.4879 208.667 95.8498 208.765 95.1418C208.863 94.4338 208.911 93.7258 208.911 93.0178Z" fill="#E00000"/>
<rect x="215.641" y="92.4082" width="34.3525" height="1.36767" fill="#000B34"/>
<rect x="102.512" y="92.4082" width="34.3525" height="1.36767" fill="#000B34"/>
<path fill-rule="evenodd" clip-rule="evenodd" d="M43.0032 56.9872C33.6043 53.3709 25.6818 53.1944 22.9772 57.21C22.7585 57.5348 22.5785 57.8802 22.4361 58.2445C22.2862 56.5627 22.5946 55.0751 23.4139 53.8585C26.1262 49.8315 33.7693 49.7673 43.0032 52.9966L43.0032 56.9872ZM56.2987 63.9238C70.7452 73.4447 79.2759 85.8751 75.3548 91.697C74.8907 92.3862 74.2728 92.9519 73.5202 93.3979C75.9777 93.0143 77.8578 92.0367 78.9453 90.4221C83.1129 84.2342 74.0603 71.0329 58.7257 60.9362C57.9174 60.404 57.1078 59.891 56.2987 59.3977L56.2987 63.9238Z" fill="#717171"/>
<path fill-rule="evenodd" clip-rule="evenodd" d="M68.8173 6.0647H68.4227L61.0328 11.4457V12.0196L66.0551 18.1898H66.5573L73.5167 13.598V13.1317L71.723 10.4344C72.4405 9.25226 73.696 9.68331 74.2341 10.0466C74.4924 10.678 75.2266 10.8597 75.5614 10.8717V10.6564L75.7767 10.5847L75.669 10.3695L75.8843 10.2977L75.7767 10.0466L75.956 9.93899L75.7767 9.75962L75.9919 9.59819C75.6762 8.89508 74.7364 9.30523 74.3059 9.59819C74.2325 9.62021 74.087 9.56715 73.8941 9.49677C73.6154 9.39515 73.2378 9.2574 72.8351 9.2574C71.9741 9.34349 71.5631 9.81941 71.4652 10.0466L71.167 9.59819L68.8173 6.0647ZM44.6389 111.926C44.1247 112.787 43.4049 114.538 44.6389 114.652C45.0058 114.687 45.2127 114.713 45.3106 114.733C45.1391 114.775 44.984 114.794 44.8541 114.796C45.165 114.796 45.5421 114.782 45.3106 114.733C46.1964 114.519 47.5178 113.707 48.0468 111.567C48.3099 110.515 49.0369 108.267 49.8405 107.693C50.2231 107.31 50.6297 106.043 49.1947 104.034L49.4817 100.052C50.1753 99.8847 51.7561 99.2557 52.5309 98.0791C52.5668 98.9879 52.9542 100.339 54.217 98.4737C54.0137 99.4183 54.0878 101.652 56.0106 103.03C55.6878 103.221 55.1138 103.883 55.4008 105.003C55.5323 105.636 55.9389 106.803 56.5128 106.402C56.6802 107.263 56.9146 109.451 56.5128 111.316C56.2378 112.644 56.1326 115.334 57.9119 115.478C58.9642 115.645 60.8607 114.925 60.0284 110.706L59.4544 105.612C60.6024 105.038 62.2095 103.388 59.4544 101.379C59.4066 101.176 59.4042 100.762 59.7773 100.734L60.0284 96.3572L61.9297 96.1061V93.4873C62.2525 92.6024 62.4319 90.1798 60.5665 87.5683C61.4155 81.9362 62.2884 67.3933 58.9881 54.2781V51.48C60.5426 49.4472 63.6659 44.4919 63.7233 40.9333C64.8115 38.8766 67.0954 34.1102 67.5259 31.4987L65.4811 29.4898C65.4213 27.7798 66.1699 23.8792 69.6424 21.9564C69.6902 21.8369 69.7141 21.5977 69.4271 21.5977C69.3913 21.514 69.4343 21.3036 69.8935 21.1314C70.2881 20.6291 70.0155 20.2058 65.7681 22.5304C65.5289 22.7217 64.9861 22.9896 64.7278 22.5304C64.5006 22.2076 64.0247 21.5188 63.9386 21.3466C63.8309 21.1314 62.8982 20.3422 63.1135 21.5977C63.3885 21.8847 63.9386 22.638 63.9386 23.3555C63.819 23.9175 63.7305 25.2209 64.3332 25.9384C64.5006 26.2612 64.5197 27.3948 63.257 29.3463C62.8624 30.6497 61.7073 33.5578 60.2436 34.7631C59.574 35.1338 57.9334 36.7864 56.7281 40.4311C56.6683 41.0409 56.3263 42.4328 55.4366 43.1216C54.8388 43.6477 53.6143 44.7574 53.4995 44.987C53.356 45.2739 53.2484 44.5206 53.4995 44.1619C53.7984 44.0064 54.3963 43.6381 54.3963 43.4085C54.5279 43.0139 54.6618 42.2534 54.1452 42.3682C54.3963 40.3235 53.8367 36.4061 49.5893 37.0949C48.7882 37.2982 47.2719 38.7307 47.6163 42.8346C47.6881 43.0259 47.7526 43.3512 47.437 43.1216C47.2576 43.2172 47.1428 43.6668 48.1185 44.7C48.1544 45.25 48.4271 46.4578 49.2306 46.8882C49.3263 46.948 49.3095 47.0748 48.4773 47.1035C48.3577 47.5459 48.0181 48.4666 47.6163 48.6101C47.0543 48.7656 45.837 48.8254 45.4639 47.8209C44.8541 47.6177 43.455 47.6846 42.7376 49.5787C42.3669 50.5951 41.2309 52.1472 39.6525 50.2244C40.0591 49.9135 40.0041 49.2056 36.5315 48.8613V48.4666L39.0785 45.3816C39.0905 45.1185 38.9063 44.5852 38.0741 44.5565L35.2401 47.534H34.1639L34.0204 48.1438L33.5182 48.3232L33.3388 48.4666L33.1595 49.1124L32.5855 49.3276L32.442 49.5787L32.5855 50.5832L31.043 52.4844C31.0788 52.8192 31.3515 53.4745 32.155 53.4171L33.8411 51.4441C34.4031 52.1496 35.6275 53.9122 36.0293 55.3184C36.1011 55.6173 36.3952 56.0359 36.9979 55.3184C37.4882 55.988 39.3225 57.191 42.7376 56.6457C43.2996 56.6218 44.1582 57.0403 43.0963 58.9057C42.9528 59.2764 42.8022 60.0823 43.3474 60.3406C43.3833 60.5917 43.3833 61.1227 43.0963 61.2375C42.7854 61.4168 42.1134 62.2132 41.9125 63.9638L41.5538 75.228C41.6263 75.6508 41.6984 75.9511 41.7729 76.2613C42.1473 77.819 42.5815 79.6261 43.4192 98.4737C43.3474 98.94 43.4909 99.6934 44.6389 98.9759V100.375C44.89 100.506 45.3778 100.892 45.3204 101.379C44.8661 101.87 44.0075 103.087 44.2084 104.034C44.1964 104.297 44.316 104.902 44.89 105.218C44.9498 107.164 44.9834 111.229 44.6389 111.926ZM63.5478 29.5257C63.9185 30.3149 65.076 31.9077 66.7405 31.9651C66.8481 31.6183 66.7118 30.6808 65.3056 29.7051C65.1023 29.9083 64.4661 30.1571 63.5478 29.5257ZM51.7097 52.4127C51.1357 48.9115 52.5228 46.2425 53.2881 45.3457C52.628 47.412 52.8457 49.4831 53.037 50.2603C55.7346 59.0707 55.2372 63.1866 54.6513 64.1432C54.5939 63.2535 54.0773 62.9833 53.8262 62.9594C53.5105 64.136 52.5467 64.9802 52.1043 65.2553C53.2522 61.6967 52.3195 55.2108 51.7097 52.4127ZM48.6246 47.6057C48.6126 47.4981 48.639 47.2757 48.8398 47.247C48.9475 47.2111 49.1412 47.2685 49.0551 47.7851C49.091 48.7058 48.969 51.4154 48.1941 54.8879C47.9789 56.9208 47.9717 61.381 49.6649 62.9594C49.1866 63.0192 48.1654 62.9953 47.9071 62.4213C47.7637 62.6844 47.5197 63.354 47.6919 63.928C46.8549 63.3181 45.3602 60.9146 46.0776 56.1794C46.5201 54.589 47.613 51.028 48.4452 49.507L48.6246 47.6057ZM36.356 49.2559C36.5593 50.1049 36.5569 51.8029 34.9211 51.8029L35.8179 52.7356C36.4636 52.6877 37.6833 52.1257 37.3963 50.2603L36.356 49.2559Z" fill="#000B34"/>
<path fill-rule="evenodd" clip-rule="evenodd" d="M42.9178 84.487C59.0469 95.2276 75.6816 98.5894 80.0725 91.9958C80.8256 90.8648 81.1696 89.5143 81.1413 87.9988C82.7872 92.0101 82.9312 95.5253 81.2443 98.0585C76.3218 105.45 57.6732 101.682 39.5914 89.6406C21.5097 77.5996 10.8419 61.8461 15.7644 54.4541C17.3995 51.9986 20.5493 50.7747 24.6897 50.6764C23.3984 51.2327 22.372 52.0371 21.6639 53.1003C17.2731 59.694 26.7888 73.7463 42.9178 84.487Z" fill="#E00000"/>
</svg>
