<svg width="300" height="87" viewBox="0 0 300 87" fill="none" xmlns="http://www.w3.org/2000/svg">
<g clip-path="url(#clip0_1033_1209)">
<path d="M104.886 40.1857V4.14282H118.101C120.165 4.14282 122.436 4.34997 124.295 5.17854C127.392 6.62854 129.456 9.73568 129.663 13.2571C129.869 16.3643 128.218 19.2643 125.327 20.7143C129.456 21.3357 132.14 25.0643 131.934 29C131.934 33.7643 128.63 37.9071 124.088 39.15C121.817 39.7714 119.546 39.9785 117.275 39.9785L104.886 40.1857ZM120.991 10.15C119.959 9.73568 118.72 9.52854 117.688 9.52854H111.081V18.85H117.275C118.72 18.85 120.165 18.6428 121.404 18.0214C123.469 16.5714 124.088 13.6714 122.849 11.6C122.23 11.1857 121.61 10.5643 120.991 10.15ZM122.849 25.0643C121.61 24.65 120.165 24.4428 118.72 24.4428H110.874V34.3857H118.307C119.959 34.3857 121.404 34.1785 122.849 33.5571C124.501 32.7285 125.533 31.0714 125.533 29C125.533 27.55 124.501 25.8928 122.849 25.0643Z" fill="#1E0259"/>
<path d="M174.054 4.14282H167.86V40.1857H174.054V4.14282Z" fill="#1E0259"/>
<path d="M218.858 4.14282H212.664V40.1857H218.858V4.14282Z" fill="#1E0259"/>
<path d="M238.679 3.72852C242.189 3.72852 245.492 4.34994 248.589 5.79994V11.8071C245.492 10.1499 241.982 9.32137 238.472 9.32137C235.169 9.32137 232.278 10.3571 232.278 13.2571C232.278 20.7142 250.86 17.6071 250.86 29.8285C250.86 36.4571 245.286 41.0142 237.027 41.0142C232.691 41.0142 228.562 39.9785 224.845 37.6999L227.323 32.7285C230.213 34.5928 233.723 35.4214 237.027 35.4214C240.743 35.4214 244.253 33.9714 244.253 30.6571C244.253 22.9928 225.878 26.3071 225.878 14.0857C225.878 7.45709 231.039 3.72852 238.679 3.72852Z" fill="#1E0259"/>
<path d="M279.973 40.1857V24.65H262.423V40.1857H256.229V4.14282H262.423V18.85H279.973V4.14282H285.96V40.1857H279.973Z" fill="#1E0259"/>
<path d="M118.513 46.6072C122.023 46.6072 125.327 47.2286 128.424 48.6786L126.566 53.8572C124.295 52.6143 121.611 51.9929 119.133 51.9929C112.319 51.9929 107.984 57.7929 107.984 64.8357C107.984 71.8786 111.906 77.6786 119.133 77.6786C121.817 77.6786 124.295 77.0572 126.566 75.8143L128.424 80.9929C125.327 82.4429 121.817 83.0643 118.513 83.0643C107.777 83.0643 101.583 75.6072 101.583 64.6286C101.583 54.8929 107.777 46.6072 118.513 46.6072Z" fill="#1E0259"/>
<path d="M253.338 46.6072C256.848 46.6072 260.151 47.2286 263.248 48.6786L261.39 53.8572C259.119 52.6143 256.435 51.9929 253.957 51.9929C247.144 51.9929 242.808 57.7929 242.808 64.8357C242.808 71.8786 246.731 77.6786 253.957 77.6786C256.641 77.6786 259.119 77.0572 261.39 75.8143L263.248 80.9929C260.151 82.4429 256.641 83.0643 253.338 83.0643C242.602 83.0643 236.407 75.6072 236.407 64.6286C236.407 54.8929 242.602 46.6072 253.338 46.6072Z" fill="#1E0259"/>
<path d="M163.73 64.8357C163.73 75.6072 156.917 83.4786 146.8 83.4786C136.683 83.4786 129.869 76.0215 129.869 65.25C129.869 54.4786 136.683 46.6072 146.8 46.6072C156.917 46.6072 163.73 54.0643 163.73 64.8357ZM157.123 64.8357C157.123 56.9643 152.581 51.9929 146.593 51.9929C140.606 51.9929 136.063 57.1715 136.063 65.0429C136.063 72.9143 140.606 77.8857 146.593 77.8857C152.787 77.8857 157.123 72.9143 157.123 64.8357Z" fill="#1E0259"/>
<path d="M167.86 69.3929V46.8143H174.054V69.6C174.054 75.6072 177.357 77.8858 182.312 77.8858C187.268 77.8858 190.571 75.6072 190.571 69.6V46.8143H196.765V69.3929C196.765 79.1286 191.191 83.4786 182.106 83.4786C173.021 83.4786 167.86 79.1286 167.86 69.3929Z" fill="#1E0259"/>
<path d="M208.328 56.7572C208.328 58 208.534 59.8643 208.534 61.5215V82.8572H202.34V46.8143H208.947L225.465 71.4643C225.465 70.2215 225.258 68.3572 225.258 66.7V47.0215H231.452V82.8572H225.878L208.328 56.7572Z" fill="#1E0259"/>
<path d="M274.191 46.8143H267.997V82.8572H274.191V46.8143Z" fill="#1E0259"/>
<path d="M279.972 82.8572V46.8143H285.96V77.2643H300V82.8572H279.972Z" fill="#1E0259"/>
<path d="M207.915 4.14282H178.802V9.73568H190.158V40.1857H196.352V9.73568H207.915V4.14282Z" fill="#1E0259"/>
<path d="M156.71 40.1857C151.549 29.2071 150.103 26.3071 147.832 26.3071H142.051V40.1857H135.857V4.14282H148.039C157.536 4.14282 161.046 8.90711 161.046 14.5C161.253 18.85 158.569 22.5785 154.439 23.8214C156.091 24.65 157.743 28.1714 163.73 40.1857H156.71ZM148.658 9.52854H142.257V20.5071H148.452C152.787 20.5071 154.852 18.2285 154.852 14.9143C154.852 11.6 152.994 9.73568 148.658 9.52854Z" fill="#1E0259"/>
<path d="M66.0703 41.4286C77.4733 41.4286 86.7172 32.1545 86.7172 20.7143C86.7172 9.2741 77.4733 0 66.0703 0C54.6673 0 45.4233 9.2741 45.4233 20.7143C45.4233 32.1545 54.6673 41.4286 66.0703 41.4286Z" fill="#1E0259"/>
<path d="M20.6469 41.4286C32.0499 41.4286 41.2939 32.1545 41.2939 20.7143C41.2939 9.2741 32.0499 0 20.6469 0C9.24395 0 0 9.2741 0 20.7143C0 32.1545 9.24395 41.4286 20.6469 41.4286Z" fill="#1E0259"/>
<path d="M66.0703 87C77.4733 87 86.7172 77.7259 86.7172 66.2857C86.7172 54.8455 77.4733 45.5714 66.0703 45.5714C54.6673 45.5714 45.4233 54.8455 45.4233 66.2857C45.4233 77.7259 54.6673 87 66.0703 87Z" fill="#1E0259"/>
<path d="M20.6469 87C32.0499 87 41.2939 77.7259 41.2939 66.2857C41.2939 54.8455 32.0499 45.5714 20.6469 45.5714C9.24395 45.5714 0 54.8455 0 66.2857C0 77.7259 9.24395 87 20.6469 87Z" fill="#1E0259"/>
</g>
<defs>
<clipPath id="clip0_1033_1209">
<rect width="300" height="87" fill="white"/>
</clipPath>
</defs>
</svg>
