<svg width="42" height="42" viewBox="0 0 42 42" fill="none" xmlns="http://www.w3.org/2000/svg">
<g id="Frame 1000003469">
<g id="Group 36813">
<rect id="Rectangle 4268" x="0.5" y="0.25" width="41.5" height="41.5" rx="8" fill="#F7F7FF"/>
<g id="Group 36811">
<path id="Vector" d="M21.25 11.85C20.6149 11.85 20.1 12.3649 20.1 13V29C20.1 29.6351 20.6149 30.15 21.25 30.15C21.8851 30.15 22.4 29.6351 22.4 29V13C22.4 12.3649 21.8851 11.85 21.25 11.85Z" fill="#6F6C90" stroke="#6F6C90" stroke-width="0.3" stroke-linecap="round"/>
<path id="Vector_2" d="M13.25 19.85C12.6149 19.85 12.1 20.3649 12.1 21C12.1 21.6351 12.6149 22.15 13.25 22.15H29.25C29.8851 22.15 30.4 21.6351 30.4 21C30.4 20.3649 29.8851 19.85 29.25 19.85H13.25Z" fill="#6F6C90" stroke="#6F6C90" stroke-width="0.3" stroke-linecap="round"/>
</g>
</g>
</g>
</svg>
