<svg width="38" height="32" viewBox="0 0 38 32" fill="none" xmlns="http://www.w3.org/2000/svg">
<path d="M23.7112 16.8374C23.7233 16.7691 23.4839 16.6647 23.3698 16.5643C23.255 16.4614 23.1208 16.3586 23.0517 16.2261C22.9128 15.965 22.6935 15.9184 22.4324 15.8654C22.1505 15.8092 21.8878 15.6622 21.6139 15.5634C21.3103 15.455 21.0324 15.1353 20.6701 15.4791C20.6115 15.5337 20.3568 15.4871 20.2982 15.4092C20.2179 15.3064 20.2154 15.1232 20.2243 14.977C20.2323 14.8541 20.3576 14.7232 20.3367 14.6164C20.2195 14.0597 19.7841 13.7376 19.1897 13.6774C18.9961 13.6589 18.7937 13.577 18.6242 13.4782C18.3407 13.3111 18.0957 13.0733 17.8049 12.9287C17.5559 12.8058 17.3004 12.6388 16.9759 12.748C16.8169 12.8018 16.6241 12.752 16.4466 12.7617C16.1405 12.7793 15.8819 12.3697 15.5694 12.6492C15.5598 12.7986 15.5518 12.9303 15.5437 13.0621C15.4931 13.0556 15.4409 13.0484 15.3887 13.042C15.4289 12.8026 15.469 12.5649 15.5132 12.2982C15.0586 12.6163 14.4754 12.7392 14.2722 13.4123C14.0448 13.0364 13.8071 13.0259 13.53 13.1649C13.2826 13.2902 13.0729 13.2412 12.8825 13.0259C12.6689 12.7825 12.8247 12.5472 12.8504 12.3038C12.8568 12.2395 12.8609 12.1608 12.856 12.0885C12.7797 12.0259 12.7155 11.9512 12.6649 11.8652C12.5885 11.8508 12.5002 11.8532 12.4191 11.8596C12.4006 11.8612 12.3813 11.862 12.3644 11.8652C12.2351 11.8797 12.1114 11.956 11.8793 12.046C12.0962 11.5929 12.2616 11.2467 12.4391 10.8756C12.0865 10.8861 11.8014 10.9583 11.6005 11.278C11.3628 11.6564 10.7941 11.703 10.6214 11.3905C10.3595 10.9174 10.7338 10.0467 11.0664 9.82335C11.6977 9.39923 12.4118 9.18958 13.1902 9.19762C13.452 9.20163 13.4737 9.27151 13.4898 9.49964C13.5043 9.69885 13.6384 9.89002 13.7195 10.0852C13.7758 10.0756 13.832 10.0667 13.889 10.0571C13.9195 9.87958 14.0159 9.68117 13.9693 9.52615C13.8505 9.13576 13.9814 8.89479 14.3196 8.72691C14.4802 8.64658 14.6513 8.58634 14.8063 8.49557C14.9549 8.40882 15.179 8.31484 15.2112 8.18632C15.3365 7.66742 15.7582 7.56299 16.159 7.40957C16.2434 7.37744 16.3116 7.30515 16.3944 7.26659C16.6635 7.14209 17.0297 6.85372 17.1896 6.93886C17.6217 7.1702 17.7768 6.76375 18.0692 6.73323C17.4314 6.76777 17.4314 6.76777 17.2563 6.31875C17.4916 6.31875 17.7254 6.34124 17.9519 6.31313C18.1848 6.2826 18.4105 6.20469 18.7487 6.11954C18.2876 5.91793 17.9197 5.75567 17.5494 5.59903C17.5229 5.58699 17.4772 5.60707 17.4474 5.62474C17.1293 5.8119 16.9366 5.61912 16.7157 5.38296C17.0032 5.38296 17.2788 5.44722 17.5045 5.3693C17.9728 5.20624 18.4395 5.19419 18.9182 5.22231C19.2074 5.23998 19.4941 5.27211 19.7833 5.29701C19.7367 5.24078 19.6829 5.22472 19.6299 5.21267C17.7406 4.77971 15.8474 4.77008 13.9605 5.20464C9.71772 6.18461 6.63 8.64819 4.72067 12.548C3.5198 15.006 3.20733 17.6173 3.58165 20.3171C3.73668 21.444 3.85556 21.595 4.88694 22.0457C5.56328 22.3397 6.27898 22.4859 7.03163 22.5622C5.75446 19.697 5.82514 17.3282 5.98901 15.8494C6.3087 12.9641 7.92806 10.3069 8.7024 9.67957C8.54496 10.2242 8.38672 10.7358 8.72248 11.2612C8.79638 10.8322 8.58191 10.4025 8.79478 10.0057C8.91767 10.3864 9.03575 10.7077 9.12411 11.0363C9.16989 11.2058 9.22853 11.4186 9.16588 11.5608C9.01085 11.9094 9.15544 12.0219 9.45987 12.0942C9.64864 12.1367 9.82455 12.2275 10.0133 12.2669C10.1378 12.2934 10.3129 12.3207 10.3957 12.2564C10.6415 12.0636 10.8286 12.1335 11.0471 12.2909C11.1571 12.3697 11.3082 12.4114 11.4455 12.4243C11.5989 12.4387 11.7596 12.4685 11.8921 12.5287C12.0415 12.5954 12.1572 12.6998 12.1958 12.8629C12.2897 13.2532 12.5926 13.2195 12.8279 13.3271C13.0175 13.4139 13.2287 13.4525 13.399 13.5047C13.4512 13.4123 13.501 13.3255 13.55 13.2388C13.6529 13.299 13.8159 13.3376 13.8497 13.4243C14.0328 13.9232 14.1838 14.5144 13.6119 14.981C13.2986 15.2341 13.3388 15.6992 13.6521 15.8823C13.5942 15.9707 13.5573 16.0839 13.4786 16.1434C13.199 16.349 13.3091 16.5602 13.452 16.7715C13.7733 17.2446 14.1846 17.6808 14.3919 18.1973C14.5654 18.6278 14.8441 18.7893 15.2112 18.917C15.7967 19.1202 15.9791 19.3973 15.9558 20.0319C15.9397 20.4408 15.9518 20.8512 15.9518 21.2914C16.0803 21.2609 16.1767 21.2513 16.261 21.2151C17.5687 20.6657 18.9029 20.1693 20.1737 19.5419C21.3006 18.9845 22.3529 18.276 23.4485 17.6487C23.7939 17.4511 23.663 17.1137 23.7112 16.8374Z" fill="#101920"/>
<path d="M22.1505 4.83283L22.1352 4.82238L22.132 4.81997L22.042 4.78784L22.0388 4.84166L22.1159 4.87218L22.1762 4.877L22.2035 4.86335L22.2115 4.84086L22.1914 4.828L22.1802 4.82319L22.1448 4.82158H22.1207L22.095 4.80391L22.0846 4.79748L22.0782 4.79106" fill="#101920"/>
<path d="M22.0751 4.77822C22.0751 4.77822 22.0751 4.78625 22.0831 4.79187C22.0911 4.7975 22.1184 4.81517 22.1225 4.81517C22.1265 4.81517 22.1409 4.8232 22.145 4.82159C22.149 4.82079 22.1747 4.82722 22.1803 4.8232L22.1851 4.82722L22.0855 4.83766L22.0654 4.81677L22.0558 4.80232V4.78304L22.0654 4.77661L22.0751 4.77822Z" fill="#101920"/>
<path d="M22.1406 4.84563C22.1506 4.83152 22.1394 4.80634 22.1155 4.7894C22.0916 4.77245 22.0641 4.77016 22.0541 4.78427C22.0441 4.79838 22.0554 4.82355 22.0792 4.84049C22.1031 4.85744 22.1306 4.85974 22.1406 4.84563Z" fill="#101920"/>
<path d="M22.1521 4.83037C22.1974 4.83037 22.2341 4.79369 22.2341 4.74844C22.2341 4.70319 22.1974 4.6665 22.1521 4.6665C22.1069 4.6665 22.0702 4.70319 22.0702 4.74844C22.0702 4.79369 22.1069 4.83037 22.1521 4.83037Z" fill="#101920"/>
<path d="M37.3762 3.80063C37.3738 3.80304 37.3706 3.80464 37.3698 3.80625H37.3682C37.3039 3.83436 37.2397 3.86649 37.1786 3.90666C37.0879 3.96529 37.1361 3.99341 36.9377 4.11229C36.9361 4.1139 36.9353 4.1139 36.9353 4.1147C36.5465 4.39423 36.1754 4.66011 35.789 4.90109C34.8821 5.46818 34.5054 6.28509 34.3391 7.32933C34.1455 8.56794 33.8283 9.80014 33.4355 10.9922C32.8804 12.6653 31.7599 13.8373 30.0072 14.3201C29.8224 14.3723 29.6449 14.4309 29.4722 14.5008C28.5525 14.8647 27.7966 15.4679 27.1026 16.2206C25.3499 18.1219 23.345 19.7388 21.1039 21.0385C20.675 21.2875 20.438 21.6506 20.1585 22.0136C19.899 22.3542 19.597 22.6691 19.2773 22.9526C19.1785 23.041 18.956 22.9984 18.7921 22.9952C18.7014 22.9952 18.6114 22.9727 18.5343 22.955C18.5022 22.9486 18.4716 22.9711 18.47 23.0048C18.4636 23.2739 18.5158 23.5655 18.3953 23.7149C18.2548 23.8916 17.9423 23.9302 17.6555 24.0402C17.6371 24.0467 17.6234 24.0627 17.6218 24.0828C17.6122 24.1487 17.5993 24.2523 17.5816 24.38C17.5776 24.4097 17.5495 24.4298 17.5214 24.4258C17.4113 24.4073 17.3037 24.3897 17.1471 24.3639C17.1029 24.3575 17.0708 24.4041 17.0933 24.4427C17.1631 24.5591 17.2186 24.6523 17.286 24.7624C17.2981 24.7841 17.2957 24.809 17.2796 24.8266C17.1551 24.9592 16.9623 25.1238 16.8531 25.3319C16.8073 25.4202 16.9495 25.6034 17.0298 25.7721C17.0378 25.7905 17.0338 25.8122 17.0218 25.8283C16.5912 26.3616 16.6089 26.6412 17.1543 26.981C17.1985 27.0091 17.1808 27.0757 17.1302 27.0798C16.5221 27.1215 16.1631 26.5809 15.996 26.0436C15.8892 25.6998 15.9639 25.2997 15.9542 24.927C15.9518 24.817 15.9438 24.7093 15.9342 24.5624C15.9317 24.5142 15.8715 24.4957 15.8402 24.5326C15.8305 24.5447 15.8217 24.5567 15.8121 24.5664C15.7823 24.6041 15.7221 24.5848 15.7197 24.5366C15.698 24.2314 15.6755 23.9206 15.653 23.5872C15.6506 23.5535 15.6153 23.531 15.5831 23.5414C14.416 23.9414 13.2392 24.286 12.036 24.5712C10.9941 24.817 9.93384 25.0178 8.84142 25.1704C8.79965 25.1768 8.78117 25.2266 8.80929 25.2588C10.7893 27.5079 13.1228 29.0092 16.041 29.4959C18.9616 29.9843 21.7577 29.5546 24.2792 27.9906C24.635 27.7697 25.0013 27.4798 25.366 27.144C25.3676 27.1424 25.3684 27.1416 25.37 27.1416C26.1146 26.5737 26.9508 25.6869 27.1468 25.4757L27.1733 25.4475L27.187 25.4315L27.1894 25.4291L27.1918 25.4275L27.1958 25.4234C27.2584 25.3608 27.8954 24.7351 28.4898 23.9872L28.4914 23.9856L29.1389 23.2691C29.1389 23.2707 29.1389 23.2715 29.1373 23.2731C29.1196 23.3157 29.1027 23.3591 29.085 23.4016C28.4368 24.9503 27.4994 26.3102 26.3548 27.5432C24.2085 29.8566 21.5513 31.1603 18.4467 31.545C14.3525 32.0503 10.75 30.8936 7.71043 28.1176C6.93047 27.4051 6.31598 26.5086 5.66213 25.6676C5.47899 25.4307 5.31031 25.319 5.01792 25.3054C3.89578 25.2596 2.79853 25.0796 1.76153 24.6154C1.65148 24.5656 1.54385 24.5093 1.43782 24.4507C0.0835283 23.6964 -0.34059 22.4667 0.27872 21.0529C0.738985 20.0071 1.48199 19.1926 2.33907 18.4656C2.38566 18.4255 2.45233 18.4873 2.41377 18.5379C2.31979 18.6632 2.23224 18.791 2.16476 18.9283C1.93182 19.4167 1.64988 19.9123 1.56875 20.4336C1.38721 21.5807 2.03142 22.4715 3.25799 22.9623C4.71429 23.5454 6.23967 23.6041 7.7763 23.5494C8.91692 23.5077 10.0391 23.3759 11.146 23.1727C12.93 22.8466 14.673 22.3373 16.3968 21.7309C18.8773 20.8553 21.2485 19.7436 23.4542 18.3074C24.9065 17.362 26.0937 16.1306 27.0608 14.7048C27.5436 13.9947 27.7725 13.1754 27.7372 12.291C27.7308 12.1159 27.7388 11.9408 27.7532 11.7681C27.7717 11.5231 27.8039 11.2837 27.8215 11.062C27.8231 11.0476 27.8175 11.0323 27.8079 11.0219C27.6392 10.8243 27.3878 10.6693 27.2609 10.4668C27.0319 10.103 26.8207 9.83709 26.4102 9.68045C25.7419 9.42743 25.1105 9.09729 24.6663 8.41051C24.6438 8.37597 24.6688 8.33018 24.7105 8.33018H27.1709C27.199 8.33018 27.2231 8.30608 27.2231 8.27797V8.27636C27.2231 8.24825 27.2006 8.22415 27.1725 8.22254C26.2576 8.19443 25.3435 8.15186 24.4286 8.14624C24.2173 8.14463 24.1434 8.17194 23.9394 8.05627C23.9354 8.05225 23.9273 8.04663 23.9233 8.04261L23.8767 7.99442L23.8727 7.9904L23.5265 7.53335V7.53174L22.9755 6.79757C22.9458 6.75901 22.9795 6.7052 23.0277 6.71483C23.8583 6.88191 24.6888 7.04819 25.5202 7.21366C25.5258 7.19117 25.5306 7.16787 25.5363 7.14538C24.9868 7.01043 24.4374 6.87227 23.8888 6.73733C23.4406 6.62648 22.9932 6.51643 22.5466 6.40398C22.4767 6.3863 22.3811 6.37988 22.3473 6.33329C22.124 6.02725 21.9112 5.71398 21.6573 5.34609C21.6292 5.30593 21.6694 5.25211 21.7176 5.26576C22.1505 5.3983 22.5747 5.52522 22.9932 5.65213C23.0309 5.53807 23.0132 5.59028 23.051 5.47702C22.6622 5.33565 22.2726 5.19186 21.8847 5.04888C21.4461 4.88743 20.9834 4.77497 20.7135 4.31873C20.532 4.00867 20.5746 3.72673 20.9473 3.68737C21.418 3.63676 21.9313 3.63114 22.3779 3.76528C24.4479 4.387 26.2905 5.48345 28.1276 6.59033C28.6706 6.91806 29.2401 7.20241 29.8152 7.47712C29.8289 7.48355 29.8409 7.48917 29.8514 7.4956C29.914 7.53014 29.9742 7.55986 30.0281 7.5936L30.0321 7.59601L30.0923 7.62974C30.2698 7.72372 30.4217 7.81449 30.5293 7.8908C30.6626 7.83297 30.698 7.81047 30.8008 7.7181C30.8024 7.71649 30.8032 7.71569 30.8048 7.71408L30.8072 7.71007C30.8289 7.68195 30.853 7.65545 30.8651 7.62412L30.9116 7.52934L30.9141 7.52532C30.9245 7.50363 30.9325 7.48275 30.9438 7.45865C31.1165 7.07228 31.2924 6.68431 31.4988 6.31401C31.9189 5.55734 32.6097 5.26576 33.4307 5.35653C34.0146 5.42079 34.4966 5.26014 34.9833 4.98061C35.6412 4.60469 36.3167 4.2625 36.9891 3.91389C37.0911 3.86248 37.2132 3.84882 37.3762 3.80063Z" fill="black"/>
<path d="M27.1071 2.39014V2.4049C27.1019 2.40056 27.0958 2.39535 27.0906 2.39014H27.1071Z" fill="#02C1D5"/>
<path d="M27.1071 2.39014V2.4049C27.1019 2.40056 27.0958 2.39535 27.0906 2.39014H27.1071Z" fill="#02C1D5"/>
<path d="M28.1807 2.48433L28.1718 2.4729C28.1718 2.4729 28.1734 2.47372 28.1734 2.47453C28.175 2.47862 28.1783 2.48107 28.1807 2.48433Z" fill="#02C1D5"/>
<path d="M28.2167 2.52592C28.1982 2.51307 28.1765 2.4954 28.1516 2.47211L28.1556 2.46729L28.1926 2.49701L28.1934 2.49861C28.1966 2.50183 28.199 2.50504 28.2014 2.50745C28.203 2.51066 28.2062 2.51307 28.2078 2.51548L28.2094 2.51709C28.2111 2.5195 28.2135 2.5211 28.2143 2.52271L28.2167 2.52592Z" fill="#02C1D5"/>
<path d="M29.7943 2.71302C29.4835 2.3869 28.9638 1.91138 28.3565 1.40613C27.3661 0.582793 26.497 -0.0236646 26.3484 0.00123632C26.2857 -0.00679623 26.2158 0.0269411 26.2158 0.0269411C26.2158 0.0269411 26.1508 0.0582676 26.1162 0.111282C25.9941 0.300851 26.0464 0.602071 26.2094 0.863129C26.2536 0.933815 26.2753 0.975585 26.3596 1.05591C26.3853 1.08081 26.395 1.09607 26.4102 1.10973C26.4488 1.16114 26.4632 1.17961 26.4833 1.19889L26.611 1.32821C26.7596 1.49931 26.9532 1.68325 27.1187 1.85916C27.2986 2.05034 27.477 2.24151 27.6577 2.43269C27.4513 2.24392 27.2456 2.05596 27.04 1.8672L27.0311 1.868L26.2456 1.26154C26.2054 1.35633 26.2094 1.5467 26.2801 1.77322C26.3026 1.83667 26.3291 1.90415 26.3636 1.97403C26.4938 2.23428 26.6721 2.411 26.8102 2.52265C26.8528 2.54996 26.8946 2.57808 26.938 2.60458C26.9637 2.62145 26.991 2.63832 27.0175 2.65519C27.2344 2.81745 27.4681 2.98212 27.7195 3.14598C27.9276 3.28253 28.13 3.40704 28.3268 3.5219C27.881 3.26727 27.4352 3.01264 26.9894 2.7572C26.9074 2.70981 26.8263 2.66081 26.7452 2.61262L26.7323 2.61342L26.746 2.88653C26.7476 2.88974 26.7516 2.89054 26.7516 2.89054L26.7524 2.92508C26.7717 3.29779 26.8344 3.5219 26.8488 3.5717C26.8512 3.57813 26.8536 3.58456 26.8576 3.59098C26.9492 3.72914 28.9445 4.53882 28.9445 4.53882C28.9831 4.55489 29.0136 4.56774 29.028 4.57336C29.0112 4.59666 28.9951 4.62075 28.9782 4.64405C28.975 4.64967 28.9654 4.66252 28.9485 4.67056C28.9236 4.6818 28.8995 4.67216 28.8947 4.67056L27.2392 4.01349C27.191 3.99421 27.1396 4.03277 27.1436 4.08418L27.1548 4.21431C27.154 4.21672 27.1548 4.21913 27.1557 4.22154C27.2561 4.79265 27.6328 4.99668 27.6866 5.02399C27.6914 5.0264 27.6954 5.02881 27.7003 5.03282C28.0159 5.28665 28.0818 5.71157 28.0947 5.83046C28.0963 5.85054 28.1244 5.88106 28.1244 5.88106C28.477 6.36542 29.9566 7.06586 30.4867 7.07952C30.5229 7.08032 30.5598 7.07871 30.5759 7.04498C30.9317 6.27064 31.0996 5.92524 31.286 5.53727C31.7085 4.65449 30.7478 3.54279 29.7943 2.71302ZM27.8079 2.73953L27.8111 2.73471L27.8489 2.76283L27.8497 2.76363C27.8529 2.76684 27.8553 2.76925 27.8577 2.77166C27.8601 2.77487 27.8625 2.77728 27.8641 2.77969L27.8657 2.7805C27.8681 2.78291 27.8697 2.78451 27.8714 2.78612L27.8746 2.79014C27.8561 2.77889 27.8336 2.76202 27.8079 2.73953Z" fill="#02C1D5"/>
<path d="M28.2167 2.52592C28.1982 2.51307 28.1765 2.4954 28.1516 2.47211L28.1556 2.46729L28.1926 2.49701L28.1934 2.49861C28.1966 2.50183 28.199 2.50504 28.2014 2.50745C28.203 2.51066 28.2062 2.51307 28.2078 2.51548L28.2094 2.51709C28.2111 2.5195 28.2135 2.5211 28.2143 2.52271L28.2167 2.52592Z" fill="#02C1D5"/>
<path d="M20.3038 14.9523C20.3038 14.9523 20.2428 15.0607 20.2765 15.129C20.3103 15.1965 20.3576 15.2849 20.3576 15.2849L20.4388 15.3459C20.4388 15.3459 20.4998 15.366 20.5336 15.3459C20.5673 15.3258 20.6356 15.2784 20.6356 15.2784L20.6292 15.1973L20.548 15.0752L20.4934 14.9868L20.3986 14.9395L20.3038 14.9523Z" fill="#02C1D5"/>
<path d="M14.1573 11.6443C14.1573 11.6443 14.2272 11.6579 14.2826 11.6306C14.338 11.6025 14.4215 11.5961 14.3942 11.5399C14.3942 11.5399 14.3942 11.4635 14.3388 11.4491C14.2834 11.4354 14.2416 11.4001 14.2063 11.4145C14.1717 11.4282 14.1018 11.4354 14.0946 11.4635C14.0874 11.4917 14.0737 11.5334 14.0737 11.5334L14.1573 11.6443Z" fill="#02C1D5"/>
<path d="M16.1582 11.0774L16.2329 11.1023L16.265 11.136L16.2779 11.2429L16.2562 11.2734C16.2321 11.2485 16.2008 11.2324 16.1654 11.226C16.1261 11.2188 16.0867 11.226 16.053 11.2461L16.0763 11.0806L16.1582 11.0774Z" fill="#00C1D5"/>
<path d="M15.3349 10.5705C15.2176 10.5464 14.9421 10.7545 14.763 10.7545C14.5742 10.7545 14.2971 10.6396 14.1774 10.6661C14.0826 10.6099 13.8746 10.5673 13.8577 10.5095C13.787 10.5593 13.73 10.5609 13.6866 10.6436C13.6826 10.6532 13.677 10.6621 13.673 10.6733C13.6834 10.6227 13.6987 10.5713 13.7236 10.5239C13.8521 10.2701 14.1525 10.1633 14.4112 10.2709C14.4232 10.2765 14.4369 10.2813 14.4473 10.287C14.53 10.3295 14.5967 10.3898 14.6465 10.4621C14.6803 10.4597 14.9831 10.3938 15.0208 10.401C15.1261 10.4219 15.3092 10.5054 15.3349 10.5705Z" fill="#02C1D5"/>
<path d="M16.0064 10.9134C16.0064 10.9375 15.9204 10.9559 15.7935 10.9656C15.7935 10.9656 15.7935 10.9656 15.7919 10.9656C15.7036 10.9415 15.555 10.9254 15.3879 10.9254C15.3292 10.9254 15.273 10.927 15.2224 10.931C15.212 10.9254 15.2063 10.9206 15.2063 10.9134C15.2063 10.9013 15.2345 10.8893 15.281 10.8788C15.2473 10.8411 15.2152 10.8025 15.1822 10.7656C15.1798 10.7616 15.1758 10.7591 15.1726 10.7551C15.1782 10.7567 15.1887 10.7575 15.1991 10.7575C15.2112 10.7591 15.2256 10.7591 15.2409 10.7591C15.2409 10.7897 15.273 10.8154 15.3132 10.8154C15.3357 10.8154 15.3574 10.8057 15.3694 10.7929C15.4296 10.8065 15.5027 10.8154 15.5847 10.8154C15.6995 10.8154 15.8024 10.7977 15.8682 10.7728C15.8747 10.7913 15.8803 10.813 15.8787 10.8427C15.8771 10.8483 15.873 10.8604 15.8642 10.8692C15.951 10.8788 16.0064 10.8965 16.0064 10.9134Z" fill="#02C1D5"/>
<path d="M15.3024 10.8186C15.2967 10.8211 15.2918 10.8243 15.2845 10.8268C15.282 10.8227 15.2779 10.8202 15.2747 10.8162C15.2804 10.817 15.2918 10.8186 15.3024 10.8186Z" fill="#02C1D5"/>
</svg>
