<svg width="31" height="30" viewBox="0 0 31 30" fill="none" xmlns="http://www.w3.org/2000/svg">
<g id="Icon / Instagram">
<path id="Vector" fill-rule="evenodd" clip-rule="evenodd" d="M20.5 3.75H10.5C7.04822 3.75 4.25 6.54822 4.25 10V20C4.25 23.4517 7.04822 26.25 10.5 26.25H20.5C23.9517 26.25 26.75 23.4517 26.75 20V10C26.75 6.54822 23.9517 3.75 20.5 3.75ZM24.5625 20C24.5556 22.2407 22.7407 24.0556 20.5 24.0625H10.5C8.25919 24.0556 6.44436 22.2407 6.4375 20V10C6.44436 7.75919 8.25919 5.94436 10.5 5.9375H20.5C22.7407 5.94436 24.5556 7.75919 24.5625 10V20ZM21.4375 10.3125C22.1279 10.3125 22.6875 9.75285 22.6875 9.0625C22.6875 8.37215 22.1279 7.8125 21.4375 7.8125C20.7471 7.8125 20.1875 8.37215 20.1875 9.0625C20.1875 9.75285 20.7471 10.3125 21.4375 10.3125ZM15.5 9.375C12.3934 9.375 9.875 11.8934 9.875 15C9.875 18.1066 12.3934 20.625 15.5 20.625C18.6066 20.625 21.125 18.1066 21.125 15C21.1284 13.5071 20.5368 12.0745 19.4811 11.0188C18.4255 9.96324 16.9929 9.37168 15.5 9.375ZM12.0625 15C12.0625 16.8985 13.6015 18.4375 15.5 18.4375C17.3985 18.4375 18.9375 16.8985 18.9375 15C18.9375 13.1015 17.3985 11.5625 15.5 11.5625C13.6015 11.5625 12.0625 13.1015 12.0625 15Z" fill="#898989"/>
</g>
</svg>
