<svg width="31" height="30" viewBox="0 0 31 30" fill="none" xmlns="http://www.w3.org/2000/svg">
<g id="Icon / Twitter">
<path id="Vector" d="M26.7161 8.39675C26.1356 9.17115 25.4338 9.84667 24.638 10.3972C24.638 10.5995 24.638 10.8018 24.638 11.0153C24.6443 14.6889 23.177 18.2114 20.5648 20.7931C17.9526 23.3749 14.4141 24.7999 10.7427 24.7486C8.62008 24.7558 6.52468 24.2711 4.62062 23.3326C4.51794 23.2878 4.45173 23.1863 4.45212 23.0741V22.9505C4.45212 22.7891 4.58288 22.6584 4.74418 22.6584C6.83062 22.5895 8.84262 21.8661 10.4955 20.5905C8.60701 20.5524 6.90783 19.4336 6.12584 17.7134C6.08636 17.6195 6.09864 17.5116 6.15831 17.429C6.21796 17.3464 6.31634 17.3009 6.41791 17.3089C6.99187 17.3665 7.57157 17.3131 8.12534 17.1515C6.04058 16.7188 4.47411 14.988 4.24992 12.8696C4.24196 12.768 4.28749 12.6696 4.37009 12.6099C4.45268 12.5503 4.56039 12.5379 4.65432 12.5775C5.21377 12.8244 5.81771 12.9544 6.42914 12.9595C4.60239 11.7606 3.81336 9.48006 4.50828 7.40778C4.58002 7.20641 4.75236 7.05765 4.96197 7.01618C5.17157 6.97469 5.38754 7.0466 5.53049 7.20549C7.99558 9.82906 11.3826 11.3925 14.9775 11.566C14.8855 11.1986 14.8402 10.821 14.8427 10.4422C14.8763 8.4559 16.1053 6.68651 17.9543 5.96234C19.8032 5.23818 21.9062 5.70254 23.2788 7.13805C24.2143 6.95982 25.1188 6.64557 25.9635 6.20526C26.0253 6.16664 26.1038 6.16664 26.1657 6.20526C26.2043 6.26717 26.2043 6.34565 26.1657 6.40755C25.7566 7.3444 25.0655 8.13015 24.1887 8.65524C24.9565 8.5662 25.7107 8.38509 26.4353 8.1158C26.4963 8.07428 26.5765 8.07428 26.6375 8.1158C26.6886 8.13918 26.7268 8.18389 26.742 8.23803C26.7571 8.29216 26.7476 8.35023 26.7161 8.39675Z" fill="#898989"/>
</g>
</svg>
